<svg xmlns="http://www.w3.org/2000/svg" viewBox="0 0 316.78 614.11"><defs><style>.cls-1{fill:#21409a;}.cls-1,.cls-3,.cls-4,.cls-5{stroke:#231f20;stroke-miterlimit:10;stroke-width:5px;}.cls-2{fill:#231f20;}.cls-3{fill:#fff200;}.cls-4{fill:#ed1c24;}.cls-5{fill:#00a14b;}.cls-6{fill:#fff;}</style></defs><g id="Layer_2" data-name="Layer 2"><g id="Layer_1-2" data-name="Layer 1"><path class="cls-1" d="M16.55,168.14l95.89,37.09,68.65-86.85L15,45.6"/><path class="cls-2" d="M14.24,611.6c-1.8-23.58-3.16-47.17-4.4-70.75L8.13,505.48c-.56-11.8-.92-23.59-1.4-35.38s-.93-23.58-1.3-35.37l-1-35.38L3.5,364,2.91,328.6Q1.59,257.85,1.52,187.1c0-47.17.11-94.33,1-141.5l.36-19.26L20,34.17,55.11,50.25l17.56,8,17.49,8.22,35,16.46,17.47,8.24L160,99.63l34.79,16.83,34.65,17.16c11.56,5.68,23,11.58,34.53,17.43l8.62,4.39,8.58,4.47c5.72,3,11.45,6,17.14,9l-.61,1.38-70.85-30.77L156,108.67,14.44,46.84l1.9-1.24.13,141.5-.16,141.5-.17,141.5-.4,141.5Z"/><path class="cls-2" d="M310.05,161.94c-23.39,20.26-47.66,39.31-72.19,58s-49.46,36.78-74.65,54.52-50.68,35.07-76.52,51.88c-26,16.64-52.18,32.9-79.26,47.91C31,354.09,55.31,335.18,79.94,316.66s49.46-36.77,74.65-54.48,50.67-35,76.5-51.85S283.06,177.14,310.05,161.94Z"/><circle class="cls-2" cx="124.43" cy="134.24" r="17.68"/><path class="cls-2" d="M287.41,167.4a44.69,44.69,0,0,1,8,2,75.9,75.9,0,0,1,7.54,3,79.17,79.17,0,0,1,7.17,3.79,44.4,44.4,0,0,1,6.65,4.82,45.44,45.44,0,0,1-8-2,75.37,75.37,0,0,1-7.51-3,74,74,0,0,1-7.14-3.79A44.26,44.26,0,0,1,287.41,167.4Z"/><path class="cls-3" d="M197.48,241.05,119,207.77,10.75,165.9Q12.87,266.49,15,367.09Z"/><path class="cls-4" d="M181.09,118.38l-68.65,86.85,85,35.82,96.85-70.9Z"/><path class="cls-5" d="M85.47,194.8,14.94,365,14.65,167.4Z"/><path class="cls-1" d="M14.65,167.4,15,45.6Z"/><path class="cls-2" d="M15.43,611.17a29.46,29.46,0,0,1,4.07-1.33,30.44,30.44,0,0,1,15.25.31c-1.53-56-7-98.8-12.08-128.68-2.76-16.23-6.94-37.75-3.41-66.38a193.06,193.06,0,0,1,18.91-62.18"/><path class="cls-2" d="M15.43,611.17A23.54,23.54,0,0,1,20,608.94a28.57,28.57,0,0,1,5-1.4,32.4,32.4,0,0,1,10.54,0L32,610.23c-1.61-10.83-3.07-21.62-4.51-32.38l-4.35-32.21c-2.93-21.42-6-42.73-9.52-64-.43-2.66-.9-5.39-1.31-8.13s-.77-5.52-1.1-8.32c-.69-5.58-1.1-11.26-1.27-16.94a156.79,156.79,0,0,1,.4-17.07c.45-5.67,1.19-11.3,2.18-16.87,4.16-22.23,12.76-43.46,25.65-61.4-3.19,10.57-6.05,21-8.11,31.53A236.59,236.59,0,0,0,26,416a207.93,207.93,0,0,0,.55,31.29c.47,5.19,1.19,10.36,2,15.56s1.81,10.42,2.74,15.82a518.2,518.2,0,0,1,7.41,65.57c.31,5.49.41,11,.56,16.47s.11,11,0,16.49c-.17,11-.71,22-1.69,32.91l-.36,4L34,612.81a31.3,31.3,0,0,0-9-2.27,29.24,29.24,0,0,0-4.78-.08A32.93,32.93,0,0,0,15.43,611.17Z"/><line class="cls-1" x1="14.99" y1="45.6" x2="14.65" y2="167.4"/><ellipse class="cls-6" cx="50.6" cy="82.15" rx="9.7" ry="25.51" transform="matrix(0.31, -0.95, 0.95, 0.31, -43.09, 105.21)"/><circle class="cls-6" cx="80.16" cy="93.09" r="2.94"/><path class="cls-2" d="M1.08,0C2.94,4.72,4.59,9.49,6.25,14.25l2.4,7.17,2.24,7.2c.72,2.41,1.68,4.76,2.53,7.14A28,28,0,0,1,15,43.1a46.86,46.86,0,0,1-.07,7.67,31.42,31.42,0,0,1-1.76,8L12.08,59A31.13,31.13,0,0,1,7.3,52.33a45.7,45.7,0,0,1-3.09-7A27.53,27.53,0,0,1,2.76,38c-.16-2.52-.2-5.07-.49-7.56l-.78-7.5L.87,15.36C.52,10.33.16,5.3,0,.22Z"/><path class="cls-2" d="M16.27,7.65c.45,5,.69,10.09.95,15.13l.28,7.55.12,7.54c0,2.51.28,5,.42,7.56a27.22,27.22,0,0,1-.57,7.48,44.5,44.5,0,0,1-2.22,7.35,31.65,31.65,0,0,1-3.95,7.2l-1.1-.09a31.64,31.64,0,0,1-2.7-7.76,45.47,45.47,0,0,1-1-7.61,27.6,27.6,0,0,1,.68-7.47c.56-2.46,1.24-4.91,1.66-7.39l1.36-7.41,1.53-7.41c1.08-4.92,2.15-9.85,3.43-14.77Z"/></g></g></svg>