<svg id="Layer_1" data-name="Layer 1" xmlns="http://www.w3.org/2000/svg" viewBox="0 0 419.33 614.11"><defs><style>.cls-1{fill:#21409a;}.cls-1,.cls-2,.cls-4,.cls-5,.cls-6{stroke:#231f20;stroke-miterlimit:10;}.cls-1,.cls-4,.cls-5,.cls-6{stroke-width:5px;}.cls-2,.cls-7{fill:#fff;}.cls-3{fill:#231f20;}.cls-4{fill:#fff200;}.cls-5{fill:#ed1c24;}.cls-6{fill:#00a14b;}</style></defs><path class="cls-1" d="M121.67,266.38l95.9,37.09,68.65-86.85L120.11,143.84" transform="translate(-105.12 -98.24)"/><path class="cls-2" d="M103.11,143.84" transform="translate(-105.12 -98.24)"/><path class="cls-3" d="M119.36,709.84c-1.79-23.58-3.16-47.17-4.4-70.75l-1.7-35.38c-.57-11.79-.93-23.58-1.4-35.37s-.93-23.58-1.31-35.38l-1-35.37-1-35.38L108,426.84q-1.31-70.75-1.39-141.5c0-47.17.11-94.33,1-141.5l.36-19.27,17.12,7.84,35.12,16.08,17.56,8,17.48,8.22,34.95,16.46,17.48,8.24,17.39,8.41,34.8,16.84,34.64,17.16c11.57,5.68,23,11.58,34.53,17.43l8.62,4.38,8.58,4.48c5.72,3,11.45,6,17.14,9l-.6,1.38L332,237.76l-70.82-30.85L119.57,145.08l1.89-1.24.14,141.5-.17,141.5-.16,141.5-.41,141.5Z" transform="translate(-105.12 -98.24)"/><path class="cls-3" d="M415.17,260.18c-23.39,20.26-47.65,39.31-72.18,58S293.52,355,268.33,372.69s-50.68,35.07-76.52,51.88c-26,16.64-52.18,32.89-79.25,47.91,23.51-20.15,47.88-39.06,72.51-57.59s49.45-36.76,74.65-54.47,50.67-35,76.49-51.85S388.18,275.38,415.17,260.18Z" transform="translate(-105.12 -98.24)"/><circle class="cls-3" cx="124.43" cy="134.24" r="17.68"/><path class="cls-3" d="M392.54,265.64a44,44,0,0,1,8,2,73.55,73.55,0,0,1,7.54,3,72.15,72.15,0,0,1,7.17,3.79,43.34,43.34,0,0,1,6.65,4.81,44.47,44.47,0,0,1-8-2,75.48,75.48,0,0,1-14.66-6.8A44.18,44.18,0,0,1,392.54,265.64Z" transform="translate(-105.12 -98.24)"/><path class="cls-4" d="M302.61,339.29,224.13,306,115.88,264.14l4.23,201.19Z" transform="translate(-105.12 -98.24)"/><path class="cls-5" d="M286.22,216.62l-68.65,86.85,85,35.82,96.84-70.9Z" transform="translate(-105.12 -98.24)"/><path class="cls-6" d="M190.59,293q-35.26,85.11-70.52,170.23l-.3-197.63Z" transform="translate(-105.12 -98.24)"/><path class="cls-1" d="M119.77,265.64l.34-121.8Z" transform="translate(-105.12 -98.24)"/><path class="cls-3" d="M120.56,709.41a28.17,28.17,0,0,1,4.07-1.33,30.45,30.45,0,0,1,15.25.31c-1.54-56-7-98.81-12.09-128.68-2.75-16.23-6.93-37.75-3.4-66.38a192.56,192.56,0,0,1,18.91-62.18" transform="translate(-105.12 -98.24)"/><path class="cls-3" d="M120.56,709.41a23.45,23.45,0,0,1,4.52-2.23,28.43,28.43,0,0,1,5-1.4,32.13,32.13,0,0,1,10.54,0l-3.48,2.74c-1.61-10.83-3.06-21.62-4.5-32.38l-4.35-32.21c-2.93-21.42-6-42.73-9.52-64-.44-2.66-.9-5.39-1.31-8.13s-.77-5.52-1.11-8.32c-.69-5.59-1.1-11.26-1.26-16.95a159.22,159.22,0,0,1,.39-17.06q.67-8.5,2.19-16.87c4.16-22.23,12.75-43.46,25.65-61.4a323.92,323.92,0,0,0-8.12,31.53,234.93,234.93,0,0,0-4.06,31.53,208,208,0,0,0,.54,31.29c.48,5.19,1.19,10.36,2,15.56s1.81,10.42,2.74,15.82a519.83,519.83,0,0,1,7.41,65.57c.3,5.48.41,11,.55,16.47s.11,11,0,16.48c-.18,11-.72,22-1.7,32.92l-.36,4-3.12-1.3a31.32,31.32,0,0,0-9-2.27,29.28,29.28,0,0,0-4.78-.08A31.48,31.48,0,0,0,120.56,709.41Z" transform="translate(-105.12 -98.24)"/><line class="cls-1" x1="14.99" y1="45.6" x2="14.65" y2="167.4"/><ellipse class="cls-7" cx="155.73" cy="180.39" rx="9.7" ry="25.51" transform="matrix(0.31, -0.95, 0.95, 0.31, -168.77, 175.25)"/><circle class="cls-7" cx="80.16" cy="93.09" r="2.94"/><path class="cls-3" d="M106.2,98.24c1.86,4.72,3.51,9.49,5.18,14.25l2.4,7.17,2.23,7.2c.72,2.4,1.69,4.76,2.54,7.14a27.56,27.56,0,0,1,1.56,7.33A44.85,44.85,0,0,1,120,149a31.42,31.42,0,0,1-1.76,8l-1.08.22a31.32,31.32,0,0,1-4.77-6.68,43.84,43.84,0,0,1-3.09-7,27.55,27.55,0,0,1-1.46-7.36c-.16-2.52-.2-5.07-.49-7.56l-.78-7.5L106,113.6c-.35-5-.71-10.07-.87-15.14Z" transform="translate(-105.12 -98.24)"/><path class="cls-3" d="M121.39,105.88c.45,5.06.69,10.1,1,15.14l.29,7.55.11,7.54c0,2.51.28,5,.43,7.56a28,28,0,0,1-.57,7.48,45.53,45.53,0,0,1-2.23,7.35,31.47,31.47,0,0,1-4,7.2l-1.09-.1a31.06,31.06,0,0,1-2.71-7.75,45.44,45.44,0,0,1-1-7.61,27.59,27.59,0,0,1,.67-7.47c.56-2.46,1.24-4.92,1.66-7.39l1.37-7.42,1.52-7.4c1.09-4.93,2.16-9.86,3.44-14.77Z" transform="translate(-105.12 -98.24)"/><path class="cls-3" d="M152.77,499.89h19.78c15.53,0,26,5.22,26,20.4,0,14.58-10.42,21.4-25.58,21.4H161.58v27.48h-8.81Zm19.09,34.65c12.12,0,17.9-4.39,17.9-14.25S183.61,507,171.44,507h-9.86v27.5Z" transform="translate(-105.12 -98.24)"/><path class="cls-3" d="M212.52,499.89h8.81v69.28h-8.81Z" transform="translate(-105.12 -98.24)"/><path class="cls-3" d="M236.26,534.59c0-22.34,13.16-36,30.74-36a25.78,25.78,0,0,1,19.05,8.54l-4.83,5.74c-3.64-3.89-8.22-6.53-14.06-6.53-13.1,0-21.8,10.72-21.8,28s8.31,28.33,21.45,28.33c6.61,0,11.64-2.88,16.06-7.78l4.83,5.53c-5.47,6.35-12.26,10-21.26,10C249.19,570.44,236.26,557.09,236.26,534.59Z" transform="translate(-105.12 -98.24)"/><path class="cls-3" d="M314.8,499.89h9.95l23.44,69.28h-9.34l-12.08-38.69c-2.49-7.75-4.71-15.35-6.94-23.35h-.42c-2.14,8-4.37,15.6-6.86,23.35l-12.21,38.69h-9ZM303.69,541h31.9v7h-31.9Z" transform="translate(-105.12 -98.24)"/><path class="cls-3" d="M353,560.16l5.28-6.06a27,27,0,0,0,19.11,8.59c9.09,0,14.48-4.53,14.48-11.26,0-7.08-5-9.33-11.55-12.19l-10-4.39c-6.45-2.75-14-7.65-14-17.84,0-10.58,9.23-18.38,21.81-18.38a28.56,28.56,0,0,1,20.4,8.58l-4.67,5.66a22.19,22.19,0,0,0-15.73-6.49c-7.77,0-12.91,3.91-12.91,10.11,0,6.68,6,9.17,11.47,11.47l9.87,4.27c8,3.44,14.27,8.22,14.27,18.52,0,11-9,19.69-23.61,19.69A33.24,33.24,0,0,1,353,560.16Z" transform="translate(-105.12 -98.24)"/><path class="cls-3" d="M407.86,560.16l5.27-6.06a27,27,0,0,0,19.12,8.59c9.09,0,14.48-4.53,14.48-11.26,0-7.08-5-9.33-11.56-12.19l-9.95-4.39c-6.46-2.75-14-7.65-14-17.84,0-10.58,9.22-18.38,21.81-18.38a28.6,28.6,0,0,1,20.4,8.58l-4.68,5.66A22.16,22.16,0,0,0,433,506.38c-7.77,0-12.92,3.91-12.92,10.11,0,6.68,6.05,9.17,11.47,11.47l9.88,4.27c8,3.44,14.27,8.22,14.27,18.52,0,11-9,19.69-23.61,19.69A33.22,33.22,0,0,1,407.86,560.16Z" transform="translate(-105.12 -98.24)"/><path class="cls-3" d="M465.23,534.28c0-22.19,12.21-35.65,29.61-35.65s29.61,13.5,29.61,35.65-12.21,36.16-29.61,36.16S465.23,556.47,465.23,534.28Zm50.11,0c0-17.26-8.13-27.9-20.5-27.9s-20.51,10.64-20.51,27.9,8.14,28.41,20.51,28.41S515.34,551.54,515.34,534.28Z" transform="translate(-105.12 -98.24)"/></svg>